<svg xmlns="http://www.w3.org/2000/svg" id="Calque_1" data-name="Calque 1" viewBox="0 0 197.66 197.66"><defs><style> .cls-1 { fill: #48291d; } .cls-2 { fill: #fab500; } .cls-3 { fill: #fff; } </style></defs><circle class="cls-3" cx="99.88" cy="99.11" r="95.02"></circle><path class="cls-2" d="M98.83,197.66C44.33,197.66,0,153.32,0,98.83S44.33,0,98.83,0s98.83,44.33,98.83,98.83-44.33,98.83-98.83,98.83ZM98.83,7.86C48.67,7.86,7.86,48.67,7.86,98.83s40.81,90.97,90.97,90.97,90.97-40.81,90.97-90.97S148.99,7.86,98.83,7.86Z"></path><g><path class="cls-1" d="M55.77,68.9c7.81,0,13.55,5.52,13.55,13.89s-5.48,13.81-13.48,13.81-13.52-5.59-13.52-13.81,5.67-13.89,13.44-13.89ZM61.73,83.27c0-3.96-2.56-6.41-5.96-6.41s-5.85,2.44-5.85,6.41,2.37,6.3,5.89,6.3,5.93-2.52,5.93-6.3Z"></path><path class="cls-1" d="M81.38,81.97c-2.15,0-3.11,1.56-3.11,3.85v10.26h-7.04v-28.14h6.93v9.48h.15c1.26-1.56,2.96-2.48,5.7-2.48,4.81,0,7.59,3.26,7.59,8.26v12.89h-7.04v-10.22c0-2.33-.96-3.89-3.18-3.89Z"></path><path class="cls-1" d="M107.5,96.08h-7.04v-20.63h6.93v2.33h.15c1.3-1.7,2.93-2.85,5.63-2.85,3.18,0,5.41,1.48,6.52,4,1.67-2.96,3.93-4,6.52-4,4.74,0,7.29,3.26,7.29,8.26v12.89h-7.04v-9.85c0-2.33-.82-3.89-3-3.89s-2.96,1.56-2.96,3.85v9.89h-7.04v-9.85c0-2.33-.81-3.89-3-3.89s-2.96,1.56-2.96,3.85v9.89Z"></path><path class="cls-1" d="M136.07,96.82l.48-5.7c.78.19,1.33.33,2.41.33,1.7,0,2.63-.33,2.85-1.15l.07-.26-7.34-15.11h8.44l2.79,8.55,2.71-8.55h7.89l-6.82,14.81c-1.44,3.93-3.74,7.55-8.96,7.55-2,0-3.33-.19-4.52-.48Z"></path><path class="cls-2" d="M18.1,95.18h10.38c7.5,0,11.05,2.96,11.05,7.79,0,2.79-1.23,5-3.52,6.14,3.47,1.14,4.95,3.77,4.95,7.5,0,5.17-3.35,9.06-11.9,9.06h-10.97v-30.49ZM26.36,103.86v4.28h2.03c1.69,0,2.46-.8,2.46-2.2,0-1.57-.93-2.07-2.5-2.07h-1.99ZM26.36,114.27v4.57h2.96c2.07,0,2.96-.97,2.96-2.46,0-1.31-1.02-2.12-3.05-2.12h-2.88Z"></path><path class="cls-2" d="M43.88,103.22h7.55v2.62h.16c1.13-2.26,3.92-3.19,7.43-3.19l-.52,8.8c-5.17-.28-6.94,1.53-6.94,6.86v7.39h-7.67v-22.49Z"></path><path class="cls-2" d="M82.88,125.71h-7.55v-2.34h-.16c-1.37,1.78-3.07,2.91-5.94,2.91-5.21,0-8.2-3.55-8.2-9v-14.05h7.67v11.75c0,2.54.97,4.24,3.27,4.24s3.23-1.7,3.23-4.2v-11.79h7.67v22.49Z"></path><path class="cls-2" d="M86.52,103.22h7.55v2.54h.16c1.45-1.9,3.35-3.11,6.42-3.11,5.13,0,8.08,3.55,8.08,9v14.05h-7.67v-10.74c0-2.54-1.05-4.24-3.47-4.24s-3.39,1.7-3.39,4.2v10.78h-7.67v-22.49Z"></path><path class="cls-2" d="M129.19,125.02c-1.41.73-3.55,1.25-5.65,1.25-7.43,0-12.39-4.16-12.39-11.79,0-7.11,4.6-11.83,12.07-11.83,2.14,0,4.44.48,5.98,1.13l-.61,7.67c-1.25-.61-2.66-.93-4.32-.93-3.23,0-5.05,1.78-5.05,4.52s1.86,4.16,4.93,4.16c1.41,0,3.11-.36,4.52-1.05l.52,6.86Z"></path><path class="cls-2" d="M144.62,114.64c-2.33,0-3.37,2.13-3.37,7.4v3.62h-7.63v-23.69h7.51v7.73h.16c1.36-1.69,3.21-2.69,6.18-2.69,5.22,0,8.23,3.53,8.23,8.95v9.7h-7.63v-3.58c0-6.58-1.04-7.44-3.45-7.44Z"></path><path class="cls-2" d="M173.53,107.04h-4.99c-.93,0-1.7-.73-1.75-1.65l-1.77-30.86c-.06-1.01.74-1.86,1.75-1.86h8.53c1.01,0,1.81.85,1.75,1.86l-1.77,30.86c-.05.93-.82,1.65-1.75,1.65Z"></path><g><path class="cls-2" d="M179.5,119.1c-.25-1.4-1.09-2.39-2.57-3.04-1.18-.52-1.82-1.23-2.15-2.38-.3-1.07-.85-1.85-1.64-2.32-.75-.45-1.7-.61-2.83-.47-.84.1-1.65.32-2.45.54-.4.11-.81.22-1.21.31-.7.16-1.18.7-1.37,1.57-.08.39-.17.8-.15,1.22.03,1.16-.4,2.02-1.41,2.79-.79.61-1.21,1.32-1.21,2.07,0,.78.43,1.54,1.26,2.2.67.54,1.27,1.06,1.83,1.58,1.88,1.74,3.86,2.55,6.03,2.48.18,0,.36.02.55.02.85,0,1.93-.12,2.71-1.09.72-.89,1.66-1.56,2.96-2.12,1.27-.54,1.92-1.86,1.65-3.35ZM177.49,121.62c-1.44.62-2.49,1.37-3.31,2.39-.62.77-1.54.79-2.52.74h-.03s-.01,0-.01,0c-1.96.07-3.71-.66-5.41-2.23-.58-.54-1.19-1.07-1.88-1.62-.6-.48-.92-1-.92-1.49,0-.46.3-.93.86-1.36,1.24-.96,1.8-2.08,1.76-3.54,0-.32.06-.67.13-1,.15-.68.46-.83.68-.88.42-.1.84-.21,1.26-.33.75-.21,1.52-.42,2.3-.51,1.91-.22,3.02.46,3.49,2.14.4,1.42,1.22,2.34,2.66,2.97,1.18.52,1.85,1.29,2.04,2.36.19,1.06-.25,1.99-1.11,2.36Z"></path><path class="cls-2" d="M170.35,115.23c-1.42-.02-3.13,1.15-3.1,2.87.03,1.62,1.19,2.41,2.64,2.43,2.08,0,3.41-.59,3.43-2.46.02-1.63-1.21-2.81-2.97-2.84ZM169.36,119.96s-.01,0-.02,0c-.31-.02-1.4-.43-1.41-1.54,0-.14.11-.25.25-.25h0c.14,0,.25.11.25.25,0,.84.94,1.05.95,1.05.13.01.24.13.23.27-.01.13-.12.23-.24.23ZM172.63,117.86s-.05.01-.07.01c-.11,0-.2-.07-.24-.17-.47-1.52-2.12-1.4-2.19-1.4-.12.01-.26-.09-.27-.23-.01-.14.09-.26.23-.27.02,0,2.12-.16,2.71,1.75.04.13-.03.27-.16.31Z"></path></g></g></svg>